<svg width="26" height="22" viewBox="0 0 26 22" fill="none" xmlns="http://www.w3.org/2000/svg">
<path fill-rule="evenodd" clip-rule="evenodd" d="M25.3017 3.73235H23.4081H23.406V1.40161C23.406 1.06184 23.1574 0.761436 22.8094 0.711713C20.7894 0.41545 18.6431 0.585335 16.7826 1.29181C15.4214 1.80768 14.2115 2.60738 13.3062 3.71992C12.4091 2.52658 11.1805 1.69995 9.82767 1.18201C7.86984 0.432024 5.63648 0.336723 3.79882 0.72C3.48183 0.786297 3.24565 1.06391 3.24358 1.39954L3.23115 3.73235H1.24018C0.854829 3.73235 0.541992 4.04519 0.541992 4.43054V20.522C0.541992 20.9073 0.854829 21.2202 1.23604 21.2181C1.31476 21.2181 1.39142 21.2057 1.46186 21.1808C3.41139 20.6235 5.34436 20.2527 7.26074 20.2402C9.12948 20.2278 10.9982 20.5551 12.8711 21.3838C12.9892 21.4605 13.128 21.5019 13.2689 21.4999C13.4118 21.5019 13.5506 21.4605 13.6667 21.3838C15.5416 20.5572 17.4083 20.2278 19.277 20.2402C21.1934 20.2527 23.1284 20.6235 25.0759 21.1808C25.1463 21.2057 25.223 21.2181 25.3017 21.2181C25.6871 21.2181 25.9999 20.9053 25.9999 20.5199V4.43054C25.9999 4.04519 25.6871 3.73235 25.3017 3.73235ZM22.0097 4.5362C22.0055 4.50305 22.0014 4.46783 22.0014 4.43054C22.0014 4.39532 22.0035 4.3601 22.0097 4.32488V2.02107C20.3937 1.86776 18.728 2.04593 17.2736 2.59702C15.9145 3.1129 14.7419 3.96025 13.9795 5.17431V18.2969C15.1645 17.5055 16.3765 16.8549 17.6217 16.4116C19.0408 15.9061 20.4994 15.6658 22.0097 15.7859V4.5362ZM3.16071 16.509L3.22493 5.1308H1.94044V19.6083C3.70559 19.1525 5.47695 18.8625 7.26074 18.8501C8.9078 18.8397 10.5549 19.0697 12.2061 19.629C11.1805 18.7983 10.0369 18.1871 8.81664 17.7893C7.27939 17.2879 5.61783 17.1222 3.91483 17.2672C3.52949 17.2983 3.19386 17.0124 3.16071 16.6291C3.15657 16.5877 3.15657 16.5483 3.16071 16.509ZM14.657 19.5234C16.2004 19.0386 17.7418 18.8397 19.2832 18.848C21.067 18.8584 22.8384 19.1505 24.6035 19.6063V5.1308H23.4081V16.5711C23.4081 16.9565 23.0953 17.2693 22.7099 17.2693C22.654 17.2693 22.6001 17.2631 22.5483 17.2507C21.0194 17.0103 19.5381 17.2092 18.092 17.7251C16.9276 18.1415 15.784 18.763 14.657 19.5234ZM12.5831 5.15359V18.1622C11.5535 17.4143 10.4306 16.8487 9.2455 16.4634C7.7559 15.9765 6.17306 15.7714 4.55501 15.8294L4.63374 1.98792C6.11713 1.7766 7.81805 1.90712 9.33251 2.48722C10.6688 2.99895 11.8518 3.86288 12.5831 5.15359Z" fill="#503C3B"/>
</svg>
