<svg width="14" height="15" viewBox="0 0 14 15" fill="none" xmlns="http://www.w3.org/2000/svg">
<mask id="mask0_97_1080" style="mask-type:alpha" maskUnits="userSpaceOnUse" x="0" y="0" width="14" height="15">
<rect y="0.5" width="14" height="14" fill="#D9D9D9"/>
</mask>
<g mask="url(#mask0_97_1080)">
<path d="M6.99412 9.99167L4.57329 11.45C4.46634 11.5181 4.35454 11.5472 4.23787 11.5375C4.1212 11.5278 4.01912 11.4889 3.93162 11.4208C3.84412 11.3528 3.77606 11.2678 3.72745 11.1659C3.67884 11.0636 3.66912 10.9493 3.69829 10.8229L4.33995 8.06667L2.1962 6.21458C2.09898 6.12708 2.03832 6.02733 2.0142 5.91533C1.9897 5.80372 1.9969 5.69444 2.03579 5.5875C2.07468 5.48056 2.13301 5.39305 2.21079 5.325C2.28857 5.25694 2.39551 5.21319 2.53162 5.19375L5.36079 4.94583L6.45454 2.35C6.50315 2.23333 6.57859 2.14583 6.68087 2.0875C6.78276 2.02917 6.88718 2 6.99412 2C7.10107 2 7.20568 2.02917 7.30795 2.0875C7.40984 2.14583 7.48509 2.23333 7.5337 2.35L8.62745 4.94583L11.4566 5.19375C11.5927 5.21319 11.6997 5.25694 11.7775 5.325C11.8552 5.39305 11.9136 5.48056 11.9525 5.5875C11.9913 5.69444 11.9987 5.80372 11.9746 5.91533C11.9501 6.02733 11.8893 6.12708 11.792 6.21458L9.64829 8.06667L10.29 10.8229C10.3191 10.9493 10.3094 11.0636 10.2608 11.1659C10.2122 11.2678 10.1441 11.3528 10.0566 11.4208C9.96912 11.4889 9.86704 11.5278 9.75037 11.5375C9.6337 11.5472 9.5219 11.5181 9.41495 11.45L6.99412 9.99167Z" fill="#543B3A"/>
</g>
</svg>
